<svg width="16" height="16" viewBox="0 0 16 16" fill="none" xmlns="http://www.w3.org/2000/svg">
  <path d="M8 0C3.58 0 0 3.58 0 8C0 11.54 2.29 14.44 5.47 15.54C5.87 15.62 6.02 15.34 6.02 15.09C6.02 14.87 6.01 14.3 6.01 13.54C4 13.91 3.48 12.97 3.48 12.97C3.13 12.14 2.63 11.92 2.63 11.92C1.92 11.5 2.68 11.51 2.68 11.51C3.46 11.57 3.84 12.34 3.84 12.34C4.54 13.5 5.68 13.14 6.13 12.91C6.2 12.42 6.39 12.09 6.61 11.91C4.81 11.73 2.93 11.02 2.93 7.86C2.93 6.96 3.26 6.23 3.79 5.68C3.71 5.5 3.42 4.65 3.87 3.48C3.87 3.48 4.55 3.26 6.01 4.34C6.65 4.16 7.35 4.07 8.05 4.07C8.75 4.07 9.45 4.16 10.09 4.34C11.55 3.26 12.23 3.48 12.23 3.48C12.68 4.65 12.39 5.5 12.31 5.68C12.84 6.23 13.17 6.96 13.17 7.86C13.17 11.03 11.28 11.72 9.48 11.91C9.76 12.14 10.02 12.62 10.02 13.34C10.02 14.34 10.01 15.09 10.01 15.09C10.01 15.34 10.16 15.62 10.56 15.54C13.74 14.44 16 11.54 16 8C16 3.58 12.42 0 8 0Z" fill="white"/>
</svg>

